<svg width="24" height="24" viewBox="0 0 24 24" fill="none" xmlns="http://www.w3.org/2000/svg">
<path d="M13.6775 20.1904C13.6777 20.5222 13.5796 20.8466 13.3954 21.1227C13.2112 21.3987 12.9493 21.6139 12.6428 21.741C12.3363 21.8682 11.999 21.9016 11.6735 21.837C11.348 21.7724 11.049 21.6128 10.8143 21.3782C10.5796 21.1437 10.4197 20.8448 10.3549 20.5193C10.29 20.1939 10.3232 19.8566 10.4501 19.55C10.577 19.2434 10.792 18.9813 11.0679 18.7969C11.3438 18.6126 11.6682 18.5141 12 18.5141C12.4447 18.5141 12.8712 18.6907 13.1857 19.005C13.5003 19.3193 13.6771 19.7457 13.6775 20.1904ZM12 16.7293C11.6549 16.7293 11.324 16.5922 11.08 16.3482C10.836 16.1042 10.6989 15.7733 10.6989 15.4282V3.37014C10.6989 3.02508 10.836 2.69416 11.08 2.45016C11.324 2.20617 11.6549 2.06909 12 2.06909C12.3451 2.06909 12.676 2.20617 12.92 2.45016C13.164 2.69416 13.3011 3.02508 13.3011 3.37014V15.4308C13.3007 15.7756 13.1635 16.1062 12.9195 16.3499C12.6756 16.5937 12.3448 16.7293 12 16.7293Z" fill="white"/>
</svg>
